<svg width="350" height="350" viewBox="0 0 350 350" fill="none" xmlns="http://www.w3.org/2000/svg">
<path fill-rule="evenodd" clip-rule="evenodd" d="M260.285 29.8121C259.252 30.7411 256.335 34.2001 253.803 37.5001C251.27 40.8001 248.361 44.4001 247.34 45.5001C246.318 46.6001 243.923 49.5251 242.018 52.0001C240.113 54.4751 237.979 56.8601 237.277 57.3001C236.575 57.7401 236 58.7151 236 59.4661C236 60.2181 235.633 60.9831 235.184 61.1671C234.736 61.3501 232.194 64.2001 229.537 67.5001C226.879 70.8001 224.433 73.7251 224.102 74.0001C223.771 74.2751 221.942 76.5251 220.037 79.0001C218.132 81.4751 216.22 83.6501 215.787 83.8331C215.354 84.0171 215 84.6011 215 85.1311C215 85.6621 213.875 87.1381 212.5 88.4121C211.125 89.6871 210 91.2401 210 91.8651C210 92.6491 213.713 93.0001 222 93.0001H234L233.981 142.25L233.962 191.5L231.16 187C229.619 184.525 227.49 180.925 226.429 179C225.368 177.075 224.275 175.275 224 175C223.725 174.725 222.924 173.6 222.221 172.5C221.517 171.4 220.678 169.713 220.354 168.75C220.031 167.787 219.369 167 218.883 167C218.398 167 218 166.357 218 165.571C218 164.786 217.438 163.529 216.75 162.779C216.063 162.029 214.935 160.535 214.244 159.458C213.553 158.381 212.683 156.825 212.311 156C211.938 155.175 208.116 148.758 203.817 141.741C199.518 134.723 196 128.536 196 127.991C196 127.446 195.63 127 195.177 127C194.725 127 193.358 125.088 192.14 122.75C190.921 120.412 189.38 117.6 188.715 116.5C188.049 115.4 186.571 113.15 185.429 111.5C184.287 109.85 183.031 107.825 182.637 107C182.244 106.175 181.377 104.591 180.711 103.479C180.045 102.368 178.488 100.048 177.25 98.3251C176.012 96.6011 175 94.7661 175 94.2461C175 93.7261 173.647 91.4331 171.994 89.1501L168.987 85.0001H137.116C110.092 85.0001 105.057 85.2271 104.008 86.4911C103.179 87.4891 102.994 89.4731 103.446 92.4911L104.123 97.0001H84.68H65.237L62.671 93.6351C61.096 91.5701 58.885 90.0271 56.946 89.6391C54.944 89.2391 52.572 89.5841 50.471 90.5811C48.53 91.5021 46.471 93.5941 45.508 95.6241C44.513 97.7221 44.105 100.163 44.478 101.797C44.817 103.284 45.636 105.176 46.297 106.002C46.959 106.828 49.153 108.374 51.174 109.438C54.732 111.312 54.972 111.316 58.808 109.587C60.986 108.604 63.334 106.745 64.024 105.456L65.279 103.111L94.389 102.805C110.4 102.637 124.207 102.644 125.072 102.82C125.937 102.996 127.867 105.021 129.361 107.32L132.079 111.5L126.289 112.141C123.105 112.494 116.563 112.832 111.75 112.891L103 113V125V137H82.967H62.933L59.433 133.5C56.478 130.545 55.238 130 51.467 130C49.01 130 47 130.45 47 131C47 131.55 46.487 132 45.86 132C45.233 132 44.123 132.787 43.392 133.75C42.661 134.713 42.064 137.525 42.064 140C42.064 142.475 42.661 145.287 43.392 146.25C44.123 147.212 45.233 148 45.86 148C46.487 148 47 148.45 47 149C47 149.55 49.084 150 51.632 150C55.63 150 56.715 149.521 59.565 146.5L62.866 143H82.933H103V158.869V174.738L99.532 175.301C97.625 175.611 88.288 175.629 78.782 175.342C67.084 174.989 61.177 174.431 60.5 173.614C59.95 172.951 58.387 171.641 57.027 170.704C55.668 169.767 53.037 169 51.182 169C49.327 169 46.558 169.739 45.028 170.642C43.427 171.588 41.798 173.751 41.187 175.742C40.465 178.096 40.447 180.046 41.132 181.848C41.686 183.305 42.845 185.276 43.707 186.229C44.569 187.181 46.753 188.238 48.559 188.577C50.366 188.916 53.142 188.908 54.728 188.56C56.446 188.182 58.32 186.728 59.363 184.963L61.113 182H82.057H103V187.5V193H130H157V181.059C157 174.177 157.424 168.856 158 168.5C158.55 168.16 159 168.326 159 168.87C159 169.413 159.564 170.452 160.252 171.179C160.941 171.905 162.394 174.188 163.48 176.25C164.566 178.313 165.802 180 166.227 180C166.652 180 167 180.494 167 181.098C167 181.702 169.539 186.314 172.643 191.348C175.747 196.382 178.559 200.725 178.893 201C179.227 201.275 180.625 203.667 182 206.316C183.375 208.965 185.232 211.924 186.128 212.893C187.023 213.861 188.066 215.632 188.445 216.827C188.824 218.022 189.554 219 190.067 219C190.58 219 191 219.506 191 220.124C191 220.742 192.8 223.943 195 227.238C197.2 230.532 199 233.432 199 233.681C199 233.93 200.014 235.566 201.253 237.317C202.491 239.068 204.079 241.4 204.782 242.5C205.484 243.6 206.314 245.256 206.628 246.181C206.941 247.105 207.828 248.104 208.599 248.399C209.764 248.847 210 246.278 210 233.144V217.351L216.25 214.534C219.688 212.985 224.075 211.069 226 210.275C227.925 209.482 230.978 208.196 232.784 207.417C234.59 206.637 236.728 206 237.534 206C238.34 206 239 205.55 239 205C239 204.45 239.943 204 241.096 204C242.248 204 244.386 203.365 245.846 202.59C247.306 201.814 250.3 200.442 252.5 199.541C254.7 198.64 257.281 197.475 258.236 196.952C259.191 196.428 260.654 196 261.486 196C262.319 196 263 196.399 263 196.887C263 197.374 264.238 198.016 265.75 198.312C267.262 198.608 270.188 199.445 272.25 200.17C274.313 200.896 276 201.79 276 202.157C276 202.524 277.8 203.128 280 203.5C282.2 203.872 284 204.537 284 204.979C284 205.422 285.195 206.083 286.655 206.45C288.381 206.883 289.601 206.658 290.14 205.808C290.596 205.089 290.976 179.413 290.985 148.75L291 93.0001H303C310.272 93.0001 315 92.6091 315 92.0081C315 91.4621 313.988 89.8271 312.75 88.3751C311.512 86.9221 310.045 85.2311 309.489 84.6171C308.933 84.0031 306.233 80.8151 303.489 77.5341C300.745 74.2531 297.825 70.6981 297 69.6341C296.175 68.5701 294.825 66.9721 294 66.0821C293.175 65.1931 290.937 62.4481 289.026 59.9821C287.115 57.5171 285.303 55.2751 285 55.0001C284.697 54.7251 282.885 52.4761 280.974 50.0031C279.063 47.5301 276.739 44.6051 275.809 43.5031C274.879 42.4011 272.957 40.1501 271.538 38.5001C270.118 36.8501 267.954 34.0451 266.729 32.2661C265.503 30.4871 263.974 28.8271 263.331 28.5781C262.688 28.3291 261.317 28.8841 260.285 29.8121ZM58.818 97.5001C59.67 99.3701 59.67 100.63 58.818 102.5C58.022 104.248 56.885 105 55.039 105C53.588 105 51.86 104.46 51.2 103.8C50.54 103.14 50 101.43 50 100C50 98.5701 50.54 96.8601 51.2 96.2001C51.86 95.5401 53.588 95.0001 55.039 95.0001C56.885 95.0001 58.022 95.7521 58.818 97.5001ZM55.608 136.75C56.339 137.713 56.951 139.32 56.968 140.321C56.986 141.323 56.357 142.786 55.571 143.571C54.786 144.357 53.076 145 51.771 145C50.467 145 48.86 144.46 48.2 143.8C47.54 143.14 47 141.43 47 140C47 138.57 47.54 136.86 48.2 136.2C48.86 135.54 50.498 135 51.84 135C53.182 135 54.877 135.787 55.608 136.75ZM54.429 175.571C55.293 176.436 55.993 177.898 55.985 178.821C55.976 179.745 55.566 181.137 55.073 181.917C54.579 182.696 52.786 183.333 51.088 183.333C49.39 183.333 47.812 183.145 47.581 182.915C47.351 182.684 46.868 181.324 46.509 179.892C46.064 178.118 46.379 176.764 47.499 175.644C48.403 174.74 49.979 174 51 174C52.021 174 53.564 174.707 54.429 175.571ZM89.5 202.918L83.5 203.5L83.219 215.75L82.938 228H66.469C53.977 228 49.992 227.698 49.969 226.75C49.951 226.063 48.714 224.603 47.219 223.506C45.535 222.271 42.913 221.509 40.331 221.506C37.34 221.502 35.463 222.156 33.692 223.82C32.333 225.096 30.967 227.417 30.654 228.978C30.342 230.539 30.486 233.208 30.974 234.91C31.462 236.612 32.632 238.775 33.574 239.717C34.761 240.904 36.918 241.429 40.612 241.429C45.357 241.429 46.255 241.074 48.833 238.188L51.726 234.946L67.113 235.223L82.5 235.5L82.658 238.5C82.745 240.15 82.858 242.068 82.908 242.762C82.981 243.759 90.825 243.969 120.25 243.762L157.5 243.5L157.771 224.343C158.004 207.909 157.816 204.959 156.45 203.593C155.057 202.199 151.141 202.021 125.179 202.168C108.855 202.261 92.8 202.598 89.5 202.918ZM257 207.603C255.075 208.46 252.15 209.751 250.5 210.472C248.85 211.193 245.925 212.463 244 213.292C242.075 214.122 238.47 215.479 235.988 216.308C233.507 217.137 228.894 218.956 225.738 220.352L220 222.89V243.425C220 260.342 220.297 264.712 221.688 268.23C222.617 270.578 225.06 275.269 227.119 278.654C229.177 282.039 232.828 286.764 235.231 289.154C237.635 291.544 242.054 295.356 245.051 297.624C248.048 299.892 252.653 302.929 255.285 304.374C257.917 305.818 260.714 307 261.5 307C262.286 307 265.083 305.819 267.715 304.375C270.347 302.932 274.975 299.925 278 297.693C281.025 295.462 285.863 291.162 288.75 288.138C291.637 285.113 294 282.302 294 281.891C294 281.479 294.563 280.541 295.25 279.806C295.938 279.071 297.224 276.901 298.11 274.985C298.995 273.068 300.232 270.375 300.858 269C301.484 267.625 302.438 263.35 302.978 259.5C303.518 255.65 303.969 246.349 303.98 238.832C303.991 231.314 303.727 224.452 303.393 223.582C303.059 222.712 302.159 222 301.393 222C300.627 222 300 221.602 300 221.117C300 220.631 298.988 220.001 297.75 219.718C296.512 219.435 293.925 218.633 292 217.937C290.075 217.241 287.082 216.07 285.349 215.335C283.616 214.601 281.697 214 281.085 214C280.473 214 279.191 213.596 278.236 213.103C277.281 212.609 274.475 211.423 272 210.467C269.525 209.511 266.082 208.114 264.349 207.364C262.616 206.614 261.041 206.01 260.849 206.023C260.657 206.035 258.925 206.746 257 207.603ZM44 228C45.1 229.1 46 230.48 46 231.066C46 231.652 45.534 233.002 44.965 234.066C44.257 235.389 42.868 236 40.572 236C38.432 236 36.994 235.426 36.607 234.418C36.273 233.548 36 231.771 36 230.468C36 229.165 36.788 227.641 37.75 227.08C38.712 226.519 40.063 226.047 40.75 226.03C41.438 226.014 42.9 226.9 44 228ZM286.547 236.05L289.469 239.099L280.985 247.423C276.318 252.001 268.538 259.856 263.696 264.879C256.58 272.26 254.566 273.832 253.196 273.075C252.263 272.56 247.923 268.52 243.55 264.096L235.601 256.054L237.975 253.527C239.28 252.137 240.705 251 241.14 251C241.575 251 243.203 252.238 244.758 253.75C246.313 255.262 249.039 257.718 250.816 259.206L254.048 261.911L259.274 256.322C262.148 253.248 266.75 248.543 269.5 245.867C272.25 243.191 274.837 241.002 275.25 241.001C275.663 241 276 240.544 276 239.986C276 239.428 277.462 237.641 279.25 236.015C281.038 234.389 282.753 233.045 283.063 233.029C283.373 233.013 284.941 234.372 286.547 236.05ZM71 254L67.5 254.5L67.218 266.25L66.937 278H53.947C41.221 278 40.935 277.951 39.868 275.61C39.269 274.296 37.683 272.721 36.343 272.11C35.002 271.5 32.387 271 30.53 271C28.093 271 26.298 271.856 24.077 274.077C21.737 276.417 21 278.05 21 280.897C21 283.578 21.78 285.499 23.75 287.672C25.263 289.339 27.706 290.996 29.181 291.353C30.655 291.711 32.944 291.592 34.267 291.089C35.59 290.586 38.061 288.785 39.759 287.087L42.846 284H54.873H66.9L67.2 289.75L67.5 295.5H112.5H157.5L157.77 274.75C157.982 258.527 157.763 253.985 156.77 253.93C156.072 253.891 137.275 253.779 115 253.68C92.725 253.581 72.925 253.725 71 254ZM35.562 278.068C37.271 279.957 37.303 280.37 35.933 282.818C35.108 284.293 33.399 285.649 32.134 285.83C30.87 286.012 28.972 285.38 27.918 284.425C26.863 283.471 26 282.008 26 281.174C26 280.34 26.745 278.835 27.655 277.829C28.565 276.823 30.295 276 31.5 276C32.705 276 34.532 276.931 35.562 278.068Z" fill="#F2B744"/>
<path fill-rule="evenodd" clip-rule="evenodd" d="M259.363 32.4199C257.788 34.2119 255.375 37.1609 254 38.9719C252.625 40.7839 250.662 43.2189 249.638 44.3829C248.614 45.5469 246.139 48.5249 244.138 50.9999C242.137 53.4749 240.263 55.7249 239.974 55.9999C239.685 56.2749 237.891 58.5249 235.989 60.9999C234.086 63.4749 231.953 66.1009 231.249 66.8369C230.546 67.5719 228.748 69.8219 227.254 71.8369C225.76 73.8509 223.517 76.4909 222.269 77.7019C221.021 78.9129 220 80.1549 220 80.4609C220 80.7669 218.762 82.4259 217.25 84.1479C215.738 85.8699 213.938 87.8589 213.25 88.5679C212.563 89.2769 212 90.3389 212 90.9289C212 91.6309 216.133 91.9999 224 91.9999H236V142.5C236 184.877 235.777 193 234.614 193C233.852 193 232.482 191.537 231.569 189.75C230.657 187.963 229.036 185.15 227.966 183.5C226.897 181.85 225.712 179.825 225.334 179C224.956 178.175 224.388 177.275 224.073 177C223.758 176.725 222.924 175.6 222.221 174.5C221.517 173.4 220.678 171.713 220.354 170.75C220.031 169.787 219.369 169 218.883 169C218.398 169 218 168.357 218 167.571C218 166.786 217.436 165.548 216.748 164.821C216.059 164.095 214.606 161.813 213.52 159.75C212.434 157.688 211.198 156 210.773 156C210.348 156 210 155.501 210 154.891C210 154.281 206.85 148.705 203 142.5C199.15 136.295 196 130.719 196 130.109C196 129.499 195.63 129 195.177 129C194.725 129 193.358 127.087 192.14 124.75C190.921 122.412 189.379 119.6 188.712 118.5C188.046 117.4 187.275 116.275 187 116C186.725 115.725 185.954 114.6 185.288 113.5C184.621 112.4 183.079 109.587 181.86 107.25C180.642 104.912 179.328 103 178.939 103C178.551 103 177.949 102.212 177.601 101.25C177.253 100.287 176.41 98.5999 175.729 97.4999C175.047 96.3999 173.396 93.5879 172.06 91.2499L169.632 86.9999H137.316H105V91.8939V96.7879L112.775 97.1439C117.757 97.3719 121.201 98.0389 122.363 98.9999C123.361 99.8249 125.375 101.713 126.838 103.195C128.302 104.677 130.007 106.512 130.628 107.272C131.248 108.032 132.052 109.587 132.414 110.728C133.054 112.746 132.705 112.812 119.585 113.151C111.593 113.358 105.651 113.947 105.001 114.598C104.244 115.356 103.903 127.37 103.9 153.36C103.898 174.075 104.205 191.523 104.583 192.134C105.07 192.922 112.579 193.109 130.385 192.775L155.5 192.304L155.778 178.108C156.022 165.609 156.231 164.088 157.528 165.385C158.337 166.195 159 167.339 159 167.929C159 168.518 159.398 169 159.883 169C160.369 169 161.039 169.788 161.372 170.75C161.704 171.713 162.887 173.85 164 175.5C165.113 177.15 166.296 179.287 166.628 180.25C166.961 181.213 167.578 182 168 182C168.422 182 169.031 182.788 169.354 183.75C169.678 184.713 170.517 186.399 171.221 187.497C171.924 188.596 175.227 193.771 178.56 198.997C181.893 204.224 186.826 212.1 189.524 216.5C192.221 220.9 194.673 224.725 194.973 225C195.274 225.275 196.405 227.188 197.487 229.25C198.569 231.313 199.754 233 200.119 233C200.484 233 201.066 234.125 201.411 235.5C201.756 236.875 202.48 238 203.019 238C203.559 238 204 238.675 204 239.5C204 240.325 204.401 241 204.892 241C205.382 241 206.066 242.125 206.411 243.5C206.756 244.875 207.48 246 208.019 246C208.615 246 209 240.303 209 231.473V216.945L217.75 212.965C222.563 210.775 227.281 208.538 228.236 207.992C229.191 207.446 230.473 207 231.085 207C231.697 207 233.728 206.325 235.599 205.5C237.469 204.675 240.531 203.325 242.401 202.5C244.272 201.675 246.303 201 246.915 201C247.527 201 248.809 200.566 249.764 200.035C250.719 199.504 253.617 198.153 256.203 197.031L260.907 194.992L266.203 197.004C269.117 198.11 272.281 199.462 273.236 200.008C274.191 200.553 275.473 201 276.085 201C276.697 201 278.841 201.713 280.849 202.584C282.857 203.455 285.331 204.611 286.347 205.153C287.363 205.695 288.473 205.861 288.812 205.521C289.152 205.181 289.497 179.838 289.58 149.202C289.662 118.566 289.79 93.1759 289.865 92.7809C289.939 92.3849 295.482 91.9349 302.182 91.7809C312.995 91.5319 314.202 91.3309 312.932 89.9929C312.144 89.1639 309.25 85.7929 306.5 82.5019C303.75 79.2099 300.6 75.4409 299.5 74.1259C298.4 72.8099 297.044 71.2309 296.486 70.6169C295.928 70.0029 293.909 67.4749 292 64.9999C290.091 62.5249 288.072 60.0119 287.514 59.4149C286.956 58.8179 284.925 56.3629 283 53.9599C281.075 51.5569 278.712 48.7829 277.75 47.7959C276.788 46.8079 276 45.5869 276 45.0829C276 44.5789 275.646 44.0169 275.213 43.8329C274.78 43.6499 272.868 41.5119 270.963 39.0809C269.058 36.6509 266.313 33.4249 264.863 31.9119L262.225 29.1609L259.363 32.4199ZM84 223.75V243.5L119.315 243.423C138.739 243.381 155.051 243.087 155.565 242.77C156.109 242.435 156.378 234.204 156.208 223.097L155.916 204H119.958H84V223.75ZM69.2 255.2C68.35 256.05 68 262.022 68 275.7V295H112.5H157V276.082C157 265.677 156.727 256.452 156.393 255.582C155.853 254.174 151.101 254 113.093 254C81.221 254 70.096 254.304 69.2 255.2Z" fill="#7A1E1E"/>
</svg>
